<?xml version="1.0" encoding="UTF-8"?>
<svg width="260px" height="260px" viewBox="0 0 260 260" version="1.1" xmlns="http://www.w3.org/2000/svg" xmlns:xlink="http://www.w3.org/1999/xlink">
    <!-- Generator: Sketch 43.2 (39069) - http://www.bohemiancoding.com/sketch -->
    <title>icon</title>
    <desc>Created with Sketch.</desc>
    <defs></defs>
    <g id="Page-1" stroke="none" stroke-width="1" fill="none" fill-rule="evenodd">
        <g id="icon" fill="#FFFFFF">
            <path d="M57.8173634,129.827806 C64.5183883,88.6084044 89.6199225,76.291175 117.572876,76.291175 C145.52583,76.291175 156.319646,92.5803978 154.059604,112.233347 L99.1980677,112.233347 C96.9892154,112.233347 94.1392848,113.673733 92.8973255,115.509794 C92.8973255,115.509794 87.914995,121.463192 86.1582648,131.024798 C84.4015345,140.586405 87.0642049,145.784811 87.0642049,145.784811 C87.7688071,147.871755 90.1336897,149.563556 92.3443021,149.563556 L236.976116,149.563556 C239.187631,149.563556 241.972125,148.071574 243.129513,146.183239 C243.129513,146.183239 247.596298,140.263082 249.207739,131.024798 C250.81918,121.786515 248.538038,116.088335 248.538038,116.088335 C247.960303,113.959284 245.691837,112.233347 243.489103,112.233347 C243.489103,112.233347 199.329656,112.233347 199.329656,112.233347 C201.031201,77.1360851 176.301292,32 122.488468,32 C47.4230532,32 16.2646061,87.2241286 11.1550276,123.021312 C6.04544912,158.818496 15.3153885,227.655611 92.0061503,227.655611 C168.696912,227.655611 183.323959,172.147013 183.323959,172.147013 C184.0381,170.061546 182.82418,168.37094 180.615763,168.37094 L144.624313,168.37094 C142.414477,168.37094 139.572547,169.809005 138.13817,171.502247 C138.13817,171.502247 128.283593,187.927838 96.9970766,187.927838 C65.7105605,187.927838 51.1163386,171.047207 57.8173634,129.827806 Z" id="Path-6"></path>
        </g>
    </g>
</svg>