<?xml version="1.0" encoding="UTF-8"?>
<svg width="800px" height="273px" viewBox="0 0 800 273" version="1.1" xmlns="http://www.w3.org/2000/svg" xmlns:xlink="http://www.w3.org/1999/xlink">
    <title>KITE_X_Logo_RGB_Black</title>
    <g id="KITE_X_Logo_RGB_Black" stroke="none" stroke-width="1" fill="none" fill-rule="evenodd">
        <path d="M778.774,273 L778.774,241.738 C748.46,242.386 723.791,242.88 705.342,242.88 L678.285,242.88 C659.835,242.88 635.165,242.386 604.854,241.738 L604.854,273 C635.153,272.352 659.814,271.857 678.285,271.857 L705.342,271.857 C723.812,271.857 748.473,272.352 778.774,273" id="Fill-1" fill="#000000"></path>
        <path d="M449.277,190.575 C422.648,190.575 407.785,171.997 406.237,143.51 L523.899,143.51 C525.138,133.912 525.138,128.648 525.138,124.003 C525.138,75.39 496.651,47.833 449.896,47.833 C399.425,47.833 370.01,81.273 370.01,136.079 C370.01,190.266 400.044,221.229 448.967,221.229 C490.149,221.229 522.661,197.697 524.209,164.566 L487.981,164.566 C484.575,180.667 469.713,190.575 449.277,190.575 M449.896,77.867 C472.809,77.867 489.53,89.634 489.53,113.785 L489.53,115.953 L406.857,115.953 C410.262,91.182 425.125,77.867 449.896,77.867" id="Fill-2" fill="#000000"></path>
        <path d="M323.878,220.92 C337.811,220.92 348.339,217.204 352.674,214.727 L352.674,186.24 C348.339,187.479 340.288,188.717 330.69,188.717 C313.969,188.717 309.944,181.905 309.634,161.16 L309.015,81.583 L353.603,81.583 L353.603,52.787 L309.015,52.787 L309.015,7.58 L276.503,7.58 L276.503,25.229 C276.503,45.046 270.001,52.787 241.824,52.787 L238.418,52.787 L238.418,81.583 L274.336,81.583 L272.787,176.332 C272.478,204.199 289.817,220.92 323.878,220.92" id="Fill-3" fill="#000000"></path>
        <path d="M215.506,216.894 C214.577,186.55 213.958,164.566 213.958,147.536 L213.958,122.145 C213.958,105.115 214.577,83.131 215.506,52.787 L175.253,52.787 C176.182,83.131 176.801,105.115 176.801,122.145 L176.801,147.536 C176.801,164.566 176.182,186.55 175.253,216.894 L215.506,216.894" id="Fill-4" fill="#000000"></path>
        <g id="Group" transform="translate(604.359000, 47.076000)" fill="#000000">
            <g>
            <path d="M174.91,148.17 C152.797,127.371 136.813,112.264 124.771,100.222 L74.998,50.447 C62.956,38.405 47.848,22.423 27.049,0.31 L-5.68434189e-14,27.359 C22.113,48.158 38.095,63.266 50.138,75.308 L99.912,125.081 C111.954,137.123 127.061,153.106 147.861,175.22 L174.91,148.17" id="Fill-5"></path>
            <path d="M-5.68434189e-14,147.862 C22.113,127.062 38.095,111.954 50.138,99.912 L99.912,50.138 C111.954,38.096 127.061,22.113 147.861,0 L174.91,27.049 C152.797,47.849 136.813,62.956 124.771,74.998 L74.998,124.772 C62.956,136.814 47.848,152.797 27.049,174.91 L-5.68434189e-14,147.862" id="Fill-10"></path>
            <animateTransform
            attributeName="transform"
            attributeType="XML"
            type="rotate"
            from="0 87.641000 87.924000"
            to="90 87.641000 87.924000"
            begin="2s;op.end+1s"
            dur="2s"
            repeatCount="1"
            id="op"
            />
            </g>
        </g>
        <path d="M215.196,33.589 C214.887,27.706 214.577,20.894 214.577,16.869 C214.577,12.844 214.887,6.032 215.196,0.148 L175.253,0.148 C175.563,6.032 175.872,12.844 175.872,16.869 C175.872,20.894 175.563,27.706 175.253,33.589 L215.196,33.589" id="Fill-6" fill="#000000"></path>
        <path d="M84.841,119.978 C106.516,99.232 128.5,76.01 151.413,54.025 L151.413,52.787 L103.11,52.787 C88.557,70.126 69.05,89.634 61.309,98.303 L38.705,122.765 L38.705,69.198 C38.705,42.259 39.634,16.25 40.253,0.148 L0,0.148 C0.62,16.25 1.549,42.259 1.549,69.198 L1.549,147.536 C1.549,174.474 0.62,200.793 0,216.894 L40.253,216.894 C39.634,204.199 39.015,185.311 38.705,164.566 L58.831,144.749 C74.313,167.662 100.632,204.819 108.373,216.894 L155.748,216.894 L155.748,215.037 C139.647,196.768 99.394,141.653 84.841,119.978" id="Fill-8" fill="#000000"></path>
    </g>
</svg>