<?xml version="1.0" encoding="UTF-8"?>
<svg width="175px" height="273px" viewBox="0 0 175 273" version="1.1" xmlns="http://www.w3.org/2000/svg" xmlns:xlink="http://www.w3.org/1999/xlink">
    <title>KITE_X_Logo_ICON_RGB_White</title>
    <g id="KITE_X_Logo_ICON_RGB_White" stroke="none" stroke-width="1" fill="none" fill-rule="evenodd">
        <path d="M174.774,273 L174.774,241.738 C144.46,242.386 119.791,242.88 101.342,242.88 L74.285,242.88 C55.835,242.88 31.165,242.386 0.854,241.738 L0.854,273 C31.153,272.352 55.814,271.857 74.285,271.857 L101.342,271.857 C119.812,271.857 144.473,272.352 174.774,273" id="Fill-1" fill="#FFFFFF"></path>
        <g id="Group" transform="translate(0.359000, 47.076000)" fill="#FFFFFF">
            <path d="M174.91,148.17 C152.797,127.371 136.813,112.264 124.771,100.222 L74.998,50.447 C62.956,38.405 47.848,22.423 27.049,0.31 L-5.68434189e-14,27.359 C22.113,48.158 38.095,63.266 50.138,75.308 L99.912,125.081 C111.954,137.123 127.061,153.106 147.861,175.22 L174.91,148.17" id="Fill-5"></path>
            <path d="M-5.68434189e-14,147.862 C22.113,127.062 38.095,111.954 50.138,99.912 L99.912,50.138 C111.954,38.096 127.061,22.113 147.861,0 L174.91,27.049 C152.797,47.849 136.813,62.956 124.771,74.998 L74.998,124.772 C62.956,136.814 47.848,152.797 27.049,174.91 L-5.68434189e-14,147.862" id="Fill-10"></path>
        </g>
    </g>
</svg>