<?xml version="1.0" encoding="UTF-8"?>
<svg width="724px" height="230px" viewBox="0 0 724 230" version="1.1" xmlns="http://www.w3.org/2000/svg" xmlns:xlink="http://www.w3.org/1999/xlink">
    <!-- Generator: Sketch 47.1 (45422) - http://www.bohemiancoding.com/sketch -->
    <title>KiteX White</title>
    <desc>Created with Sketch.</desc>
    <defs></defs>
    <g id="Page-1" stroke="none" stroke-width="1" fill="none" fill-rule="evenodd">
        <g id="KiteX-White" fill="#FFFFFF">
            <g id="Group-Copy" transform="translate(7.000000, 8.000000)">
                <path d="M4.1549961,209 C1.95030561,209 0.459795367,207.233356 0.825876577,205.053921 L34.4350223,4.96460395 C34.8010909,2.78524459 36.8893578,1.01758347 39.1005635,1.01642168 L71.8716169,0.999203329 C74.0822556,0.99804183 75.5626258,2.7639267 75.1780866,4.94358593 L39.8743519,205.053514 C39.489826,207.233098 37.3874734,209 35.1861609,209 L4.1549961,209 Z" id="Path-3"></path>
                <path d="M144.353149,3.8734128 C145.883403,2.28647073 148.921943,1 151.130345,1 L193.637221,1 C195.849909,1 196.391587,2.28258104 194.84562,3.86623394 L100.700064,100.306751 C99.1547564,101.889728 98.8023742,104.709782 99.9208389,106.618905 L157.882289,205.55408 C158.997242,207.457209 158.11759,209 155.899313,209 L121.76963,209 C119.559509,209 116.825161,207.46762 115.67122,205.591847 L53.1786679,104.007891 C52.0207301,102.125621 52.3314866,99.3040025 53.8528061,97.726326 L144.353149,3.8734128 Z" id="Path-4"></path>
                <path d="M215.120119,4.91445759 C215.49015,2.73928293 217.574014,0.983726936 219.789548,0.99337881 L249.834306,1.1242675 C252.04313,1.13389014 253.538067,2.91232563 253.175854,5.08147648 L248.002904,36.0602144 C247.639567,38.2360979 245.5541,40 243.347804,40 L213.148755,40 C210.941152,40 209.451852,38.2346304 209.821535,36.0614979 L215.120119,4.91445759 Z" id="Path-5"></path>
                <path d="M392.869586,135.5 C398.316688,102.002955 418.721122,91.9933292 441.443407,91.9933292 C464.165691,91.9933292 472.939725,105.230805 471.102591,121.201821 L427.252971,121.201821 C425.045441,121.201821 422.197821,122.653963 420.986337,124.488344 C420.986337,124.488344 417.335227,128.702477 415.907224,136.472739 C414.47922,144.243001 416.452437,147.740056 416.452437,147.740056 C417.13079,149.837771 419.47052,151.538305 421.685907,151.538305 L537.753229,151.538305 C539.965242,151.538305 542.74554,150.040075 543.878896,148.147347 C543.878896,148.147347 547.136322,143.980252 548.446224,136.472739 C549.756126,128.965226 548.057696,125.065501 548.057696,125.065501 C547.501992,122.93165 545.26758,121.201821 543.045755,121.201821 L507.901528,121.201821 C509.284673,92.6799475 489.182324,56 445.439173,56 C384.420301,56 359.092348,100.87802 354.938894,129.968687 C350.785441,159.059354 358.320752,215 420.660829,215 C483.000907,215 494.618077,170.582537 494.618077,170.582537 C495.349251,168.505744 494.144051,166.82217 491.943765,166.82217 L464.178559,166.82217 C461.970404,166.82217 459.110055,168.260595 457.653837,169.914775 C457.653837,169.914775 450.14989,182.71513 424.717833,182.71513 C399.285776,182.71513 387.422484,168.997045 392.869586,135.5 Z" id="Path-6"></path>
                <path d="M205.743819,65.2886759 C206.117138,63.1073874 208.208734,61.3206692 210.423102,61.297851 L240.840701,60.9844106 C243.051679,60.9616274 244.54398,62.7090487 244.174386,64.8842308 L220.356672,205.058927 C219.986837,207.235522 217.905512,209 215.689825,209 L185.145434,209 C182.937841,209 181.449649,207.238832 181.824185,205.050428 L205.743819,65.2886759 Z" id="Path-7"></path>
                <path d="M302.3852,4.94643067 C302.761643,2.76687719 304.864534,1 307.076242,1 L336.856964,1 C339.071312,1 340.557669,2.76680182 340.176806,4.94643067 L305.21056,205.053569 C304.82971,207.233123 302.730694,209 300.520758,209 L271.142144,209 C268.932888,209 267.447087,207.233198 267.823543,205.053569 L302.3852,4.94643067 Z" id="Path-8"></path>
                <path d="M266.907021,64.9421179 C267.286682,62.7649463 269.377439,61 271.603133,61 L352.844734,61 C355.058664,61 356.548318,62.7596955 356.169936,64.9421179 L351.121931,94.0578821 C350.74446,96.2350537 348.654734,98 346.442694,98 L265.138064,98 C262.931265,98 261.44916,96.2403045 261.829737,94.0578821 L266.907021,64.9421179 Z" id="Path-9"></path>
                <path d="M616.563051,62.3152309 L591.58729,4.67233113 C590.708515,2.64415865 588.214014,1 585.988098,1 L549.935782,1 C547.722209,1 546.619447,2.64252147 547.48042,4.68702294 L586.766085,97.9762599 C587.6236,100.012546 587.238763,103.099462 585.914045,104.861082 L510.007491,205.802201 C508.679408,207.568297 509.398975,209 511.596904,209 L551.66589,209 C553.871782,209 556.729921,207.572142 558.063173,205.792839 L605.568221,142.394586 L631.677202,205.29947 C632.525469,207.343216 634.99901,209 637.210064,209 L673.377816,209 C675.585264,209 676.688526,207.337324 675.852291,205.311195 L635.764039,108.180593 C634.923206,106.143322 635.31744,103.051891 636.635066,101.288428 L708.996276,4.44284019 C710.318164,2.6736739 709.604438,1.23067397 707.39647,1.21978173 L666.837736,1.01969952 C664.6323,1.00881977 661.765158,2.42987197 660.43977,4.18579275 L616.563051,62.3152309 L616.563051,62.3152309 Z" id="Combined-Shape"></path>
            </g>
        </g>
    </g>
</svg>