<?xml version="1.0" encoding="UTF-8"?>
<svg width="100px" height="100px" viewBox="0 0 100 100" version="1.1" xmlns="http://www.w3.org/2000/svg" xmlns:xlink="http://www.w3.org/1999/xlink">
    <title>LinkedInIcon</title>
    <g id="LinkedInIcon" stroke="none" stroke-width="1" fill="none" fill-rule="evenodd">
        <g id="iconfinder_linkedin_circle_294706-copy" fill="#FFFFFF" fill-rule="nonzero">
            <path d="M50,0 C77.6142375,0 100,22.3857625 100,50 C100,77.6142375 77.6142375,100 50,100 C22.3857625,100 0,77.6142375 0,50 C0,22.3857625 22.3857625,0 50,0 Z M36.1344538,41.5890411 L26.4705882,41.5890411 L26.4705882,72 L36.1344538,72 L36.1344538,41.5890411 Z M62.605042,40.9726027 C57.1428571,40.9726027 53.5714286,44.0547945 52.9411765,46.109589 L52.9411765,46.109589 L52.9411765,41.3835616 L42.0168067,41.3835616 C42.0840336,42.1726027 42.1082353,45.5707397 42.1100639,49.8273534 L42.1100053,51.0457192 C42.1093225,52.4214041 42.1066439,53.8648973 42.1025998,55.322774 L42.1000145,56.1987986 C42.0977319,56.9295452 42.0951395,57.6612164 42.092316,58.3871342 L42.0888218,59.2550466 C42.0636571,65.3051178 42.0244101,70.7607452 42.0177748,71.6638027 L42.0170538,71.7614137 C42.0168908,71.7833425 42.0168067,71.7945205 42.0168067,71.7945205 L42.0168067,71.7945205 L52.9411765,71.7945205 L52.9414647,55.075427 C52.9437701,54.3110096 52.9645191,53.4383562 53.1512605,52.890411 C53.9915966,51.0410959 55.4621849,49.1917808 58.4033613,49.1917808 C62.1848739,49.1917808 63.8655462,52.0684932 63.8655462,56.1780822 L63.8655462,56.1780822 L63.8655462,72 L75,72 L75,54.739726 C75,45.2876712 69.5378151,40.9726027 62.605042,40.9726027 Z M30.8823529,27 C27.3109244,27 25,29.260274 25,32.3424658 C25,35.4246575 27.3109244,37.6849315 30.8823529,37.6849315 L30.8823529,37.6849315 L31.149597,37.6811069 C34.7627146,37.5768335 36.7647059,35.351272 36.7647059,32.3424658 C36.7647059,29.260274 34.4537815,27 30.8823529,27 Z" id="Combined-Shape"></path>
        </g>
    </g>
</svg>