<?xml version="1.0" encoding="UTF-8"?>
<svg width="100px" height="100px" viewBox="0 0 100 100" version="1.1" xmlns="http://www.w3.org/2000/svg" xmlns:xlink="http://www.w3.org/1999/xlink">
    <title>TwitterIcon</title>
    <g id="TwitterIcon" stroke="none" stroke-width="1" fill="none" fill-rule="evenodd">
        <path d="M50,0 C77.6142375,0 100,22.3857625 100,50 C100,77.6142375 77.6142375,100 50,100 C22.3857625,100 0,77.6142375 0,50 C0,22.3857625 22.3857625,0 50,0 Z M62.025,24.6 C54.95,24.6 49.2,30.35 49.2,37.425 C49.2,38.425 49.325,39.4 49.525,40.35 C38.875,39.825 29.425,34.7 23.1,26.95 C22,28.85 21.375,31.05 21.375,33.4 C21.375,37.85 23.65,41.775 27.075,44.075 C24.975,44 23,43.425 21.275,42.475 L21.275,42.65 L21.275,42.65 C21.275,48.85 25.7,54.05 31.55,55.225 C30.475,55.525 29.35,55.675 28.175,55.675 C27.35,55.675 26.55,55.6 25.775,55.45 C27.4,60.55 32.15,64.25 37.75,64.35 C33.35,67.8 27.825,69.85 21.825,69.85 C20.8,69.85 19.775,69.8 18.775,69.675 C24.425,73.275 31.175,75.4 38.4,75.4 C61.975,75.4 74.875,55.85 74.875,38.925 C74.875,38.375 74.875,37.825 74.85,37.275 C77.35,35.475 79.525,33.2 81.25,30.625 C78.95,31.65 76.475,32.325 73.875,32.65 C76.525,31.075 78.55,28.55 79.525,25.55 C77.05,27.025 74.3,28.075 71.375,28.65 C69.025,26.15 65.7,24.6 62.025,24.6 Z" id="Combined-Shape" fill="#FFFFFF" fill-rule="nonzero"></path>
    </g>
</svg>