<?xml version="1.0" standalone="no"?>
<!DOCTYPE svg PUBLIC "-//W3C//DTD SVG 20010904//EN"
 "http://www.w3.org/TR/2001/REC-SVG-20010904/DTD/svg10.dtd">
<svg version="1.0" xmlns="http://www.w3.org/2000/svg"
 width="520.000000pt" height="520.000000pt" viewBox="0 0 520.000000 520.000000"
 preserveAspectRatio="xMidYMid meet">
<metadata>
Created by potrace 1.11, written by Peter Selinger 2001-2013
</metadata>
<g transform="translate(0.000000,520.000000) scale(0.100000,-0.100000)"
fill="#000000" stroke="none">
<path d="M2190 4549 c-65 -7 -170 -22 -250 -36 -211 -36 -539 -157 -690 -253
-233 -149 -269 -178 -426 -334 -223 -222 -399 -504 -507 -811 -31 -88 -65
-208 -73 -260 -3 -22 -7 -42 -9 -45 -2 -3 -7 -33 -10 -65 -4 -33 -9 -69 -12
-80 -12 -50 -10 -437 3 -545 97 -790 517 -1293 1192 -1429 54 -11 129 -24 167
-29 85 -12 469 -13 545 -2 30 5 75 11 100 14 91 10 128 17 250 47 319 79 583
220 803 429 137 130 248 280 327 442 74 150 85 219 38 233 -11 4 -191 7 -399
7 -437 -1 -415 3 -504 -98 -62 -70 -183 -154 -283 -198 -79 -34 -236 -75 -327
-84 -221 -22 -444 -1 -583 54 -129 52 -219 122 -287 224 -84 126 -125 283
-128 483 -1 109 9 294 18 320 2 6 7 29 10 50 12 88 18 117 40 204 91 359 284
622 560 760 61 31 183 75 245 89 19 4 37 8 40 9 10 2 116 18 145 21 96 11 332
4 387 -12 9 -3 25 -6 35 -9 115 -22 227 -81 312 -165 75 -74 120 -152 146
-256 17 -69 27 -226 16 -254 -5 -13 -79 -15 -572 -15 l-566 0 -41 -27 c-45
-30 -107 -126 -141 -218 -70 -191 -63 -401 15 -470 l35 -30 1482 0 1482 0 35
21 c100 61 184 284 182 481 -1 152 -29 218 -98 236 -16 5 -226 8 -467 8 l-437
-1 -1 65 c-3 298 -90 595 -247 848 -70 113 -109 161 -221 272 -182 180 -362
285 -621 360 -41 12 -84 23 -95 25 -23 3 -76 12 -120 21 -46 9 -410 11 -495 3z"/>
</g>
</svg>
